# xmcd CD database file
#
# Track frame offsets:
#	150
#	37388
#	59091
#	108466
#	142042
#	157390
#	188725
#	214711
#	234108
#	266296
#
# Disc length: 3975 seconds
#
# Revision: 0
# Processed by: cddbd v1.5.2PL0 Copyright (c) Steve Scherf et al.
# Submitted via: CDex 1.70beta2
#
DISCID=980f850a
DTITLE=Grupo Galé - 15 Aniversario CD 1 (Galé Rumbero)
DYEAR=2006
DGENRE=Salsa
TTITLE0=Ven A Medellín
TTITLE1=Mi  Raza
TTITLE2=Tributo Al Gran Combo
TTITLE3=No La Descuides
TTITLE4=Que Tumba'o
TTITLE5=Descarga Galé
TTITLE6=Cali ¡Ae!
TTITLE7=Mi Vecina
TTITLE8=Volver, Volver
TTITLE9=Mi Novia Y Yo
EXTD=YEAR: 2006
EXTT0=
EXTT1=
EXTT2=
EXTT3=
EXTT4=
EXTT5=
EXTT6=
EXTT7=
EXTT8=
EXTT9=
PLAYORDER=
